<svg xmlns="http://www.w3.org/2000/svg" version="1.1" xmlns:xlink="http://www.w3.org/1999/xlink" xmlns:svgjs="http://svgjs.dev/svgjs" width="1000" height="1000"><g clip-path="url(#SvgjsClipPath1030)"><rect width="1000" height="1000" fill="#ffffff"></rect><g transform="matrix(29.166666666666668,0,0,29.166666666666668,150,179.16666666666663)"><svg xmlns="http://www.w3.org/2000/svg" version="1.1" xmlns:xlink="http://www.w3.org/1999/xlink" xmlns:svgjs="http://svgjs.dev/svgjs" width="24" height="22"><svg width="24" height="22" viewBox="0 0 24 22" fill="none" xmlns="http://www.w3.org/2000/svg">
<path d="M13.2656 5.22607C13.2656 3.83032 12.1301 2.69482 10.7344 2.69482C9.33863 2.69482 8.20312 3.83032 8.20312 5.22607C8.20312 6.62182 9.33863 7.75732 10.7344 7.75732C12.1301 7.75732 13.2656 6.62182 13.2656 5.22607ZM9.14062 5.22607C9.14062 4.34726 9.85556 3.63232 10.7344 3.63232C11.6132 3.63232 12.3281 4.34726 12.3281 5.22607C12.3281 6.10488 11.6132 6.81982 10.7344 6.81982C9.85556 6.81982 9.14062 6.10488 9.14062 5.22607Z" fill="#3657CB"></path>
<path d="M6.64372 11.2868C7.24602 10.9799 7.69273 10.4568 7.90166 9.814C8.11053 9.17111 8.05658 8.48533 7.74969 7.88308C7.4428 7.28078 6.91972 6.83407 6.27688 6.62515C5.63394 6.41622 4.9482 6.47022 4.34595 6.77711C3.74366 7.084 3.29694 7.60708 3.08802 8.24992C2.87914 8.89281 2.93309 9.57859 3.23999 10.1808C3.54688 10.7831 4.06995 11.2299 4.7128 11.4388C4.97023 11.5224 5.23447 11.5639 5.49748 11.5639C5.89138 11.5639 6.28255 11.4708 6.64372 11.2868V11.2868ZM5.00248 10.5472C4.59777 10.4157 4.26847 10.1344 4.07525 9.75526C3.88203 9.37609 3.84805 8.94438 3.97958 8.53966C4.11106 8.13494 4.39231 7.80564 4.77148 7.61242C4.99888 7.49655 5.24511 7.43796 5.49313 7.43796C5.65869 7.43796 5.82509 7.46411 5.98714 7.51675C6.39186 7.64824 6.72116 7.92949 6.91438 8.30866C7.10759 8.68783 7.14158 9.11955 7.01005 9.52426C6.87856 9.92898 6.59731 10.2583 6.21814 10.4515C5.83892 10.6447 5.4072 10.6787 5.00248 10.5472Z" fill="#3657CB"></path>
<path d="M6.00924 17.2386C6.45756 17.5643 6.97787 17.7211 7.49363 17.7211C8.27701 17.7211 9.05007 17.3594 9.5447 16.6786C9.9421 16.1316 10.1027 15.4627 9.9969 14.7949C9.8911 14.1271 9.53166 13.5405 8.98468 13.1431C8.4377 12.7458 7.76884 12.5851 7.10096 12.6909C6.43318 12.7967 5.84659 13.1562 5.44923 13.7031C4.62896 14.8322 4.88016 16.4182 6.00924 17.2386V17.2386ZM6.20776 14.2542C6.45793 13.9098 6.82726 13.6835 7.24768 13.6169C7.3321 13.6035 7.41652 13.5969 7.50038 13.5969C7.83413 13.5969 8.15851 13.7017 8.43371 13.9016C9.14462 14.4181 9.30277 15.4167 8.78626 16.1276C8.26974 16.8384 7.27121 16.9966 6.56031 16.4801C5.8494 15.9636 5.69124 14.965 6.20776 14.2542Z" fill="#3657CB"></path>
<path d="M13.9764 17.721C14.4922 17.721 15.0126 17.5642 15.4609 17.2385C16.5899 16.4182 16.8411 14.8322 16.0208 13.7031C15.6234 13.1561 15.0368 12.7967 14.3691 12.6909C13.7013 12.5852 13.0324 12.7457 12.4854 13.1431C11.9384 13.5405 11.5789 14.1271 11.4732 14.7948C11.3674 15.4626 11.528 16.1316 11.9254 16.6786C12.4201 17.3595 13.1929 17.721 13.9764 17.721V17.721ZM13.0364 13.9016C13.3807 13.6514 13.8018 13.5502 14.2224 13.6168C14.6428 13.6834 15.0121 13.9097 15.2623 14.2541C15.7788 14.965 15.6207 15.9636 14.9097 16.4801C14.1988 16.9966 13.2003 16.8385 12.6838 16.1275C12.1673 15.4166 12.3255 14.4181 13.0364 13.9016V13.9016Z" fill="#3657CB"></path>
<path d="M15.1913 6.62507C14.5484 6.83399 14.0253 7.28071 13.7185 7.88301C13.4116 8.4853 13.3577 9.17104 13.5665 9.81393C13.7755 10.4568 14.2222 10.9799 14.8245 11.2867C15.1856 11.4708 15.5768 11.5639 15.9707 11.5639C16.2337 11.5639 16.4981 11.5223 16.7554 11.4388C17.3983 11.2298 17.9214 10.7831 18.2282 10.1808C18.5351 9.57852 18.5891 8.89279 18.3802 8.2499C18.1713 7.60701 17.7245 7.08393 17.1222 6.77708C16.52 6.47019 15.8342 6.41629 15.1913 6.62507V6.62507ZM16.6967 7.6124C17.0758 7.80562 17.3571 8.13487 17.4886 8.53963C17.6201 8.94435 17.5861 9.37607 17.3929 9.75524C17.1997 10.1344 16.8704 10.4157 16.4657 10.5472C16.0609 10.6786 15.6292 10.6447 15.2501 10.4515C14.8709 10.2583 14.5896 9.92901 14.4581 9.52424C14.3266 9.11952 14.3606 8.68781 14.5538 8.30863C14.747 7.92946 15.0763 7.64821 15.4811 7.51673C15.6431 7.46404 15.8095 7.43793 15.9751 7.43793C16.223 7.43793 16.4693 7.49652 16.6967 7.6124Z" fill="#3657CB"></path>
<path d="M12.3418 10.7344C12.3418 9.84803 11.6208 9.12695 10.7344 9.12695C9.84803 9.12695 9.12695 9.84803 9.12695 10.7344C9.12695 11.6208 9.84803 12.3418 10.7344 12.3418C11.6208 12.3418 12.3418 11.6208 12.3418 10.7344ZM10.0645 10.7344C10.0645 10.365 10.365 10.0645 10.7344 10.0645C11.1038 10.0645 11.4043 10.365 11.4043 10.7344C11.4043 11.1038 11.1038 11.4043 10.7344 11.4043C10.365 11.4043 10.0645 11.1038 10.0645 10.7344V10.7344Z" fill="#3657CB"></path>
<path d="M23.8627 19.4416C23.3326 18.9116 22.6279 18.6197 21.8783 18.6197C21.1287 18.6197 20.424 18.9116 19.8939 19.4416C19.1913 20.1443 18.2571 20.5312 17.2634 20.5312H15.1344C16.3078 20.0037 17.3877 19.2617 18.3247 18.3247C20.3522 16.2973 21.4688 13.6016 21.4688 10.7344C21.4688 8.63719 20.8638 6.60539 19.7192 4.85864C19.5774 4.64208 19.2868 4.58156 19.0703 4.72345C18.8537 4.86534 18.7932 5.15592 18.9351 5.37244C19.9793 6.96609 20.5312 8.82023 20.5312 10.7344C20.5312 16.1364 16.1364 20.5312 10.7344 20.5312C5.33236 20.5312 0.9375 16.1364 0.9375 10.7344C0.9375 5.33236 5.33236 0.9375 10.7344 0.9375C12.6517 0.9375 14.5086 1.49119 16.104 2.53875C16.3204 2.68088 16.611 2.62064 16.7531 2.40417C16.8952 2.18775 16.835 1.89717 16.6185 1.75505C14.8698 0.606891 12.8351 0 10.7344 0C7.86713 0 5.17148 1.11656 3.14405 3.14405C1.11661 5.17153 0 7.86713 0 10.7344C0 13.6016 1.11656 16.2973 3.14405 18.3248C5.17148 20.3522 7.86713 21.4688 10.7344 21.4688H17.2634C18.5075 21.4688 19.6771 20.9843 20.5568 20.1045C20.9098 19.7516 21.3791 19.5571 21.8783 19.5571C22.3775 19.5571 22.8468 19.7515 23.1998 20.1045C23.3828 20.2876 23.6796 20.2876 23.8627 20.1045C24.0458 19.9215 24.0458 19.6247 23.8627 19.4416Z" fill="#3657CB"></path>
<path d="M17.9961 3.94729C18.1194 3.94729 18.2403 3.8976 18.3275 3.81041C18.4147 3.72275 18.4648 3.60229 18.4648 3.479C18.4648 3.35525 18.4147 3.23479 18.3275 3.14713C18.2403 3.05994 18.1194 3.01025 17.9961 3.01025C17.8728 3.01025 17.7519 3.05994 17.6647 3.14713C17.5775 3.23479 17.5273 3.35525 17.5273 3.479C17.5273 3.60229 17.5775 3.72322 17.6647 3.81041C17.7519 3.8976 17.8728 3.94729 17.9961 3.94729Z" fill="#3657CB"></path>
</svg></svg></g></g><defs><clipPath id="SvgjsClipPath1030"><rect width="1000" height="1000" x="0" y="0" rx="500" ry="500"></rect></clipPath></defs></svg>