<svg width="114" height="24" viewBox="0 0 114 24" fill="none" xmlns="http://www.w3.org/2000/svg">
<path d="M13.2656 6.22607C13.2656 4.83032 12.1301 3.69482 10.7344 3.69482C9.33863 3.69482 8.20312 4.83032 8.20312 6.22607C8.20312 7.62182 9.33863 8.75732 10.7344 8.75732C12.1301 8.75732 13.2656 7.62182 13.2656 6.22607ZM9.14062 6.22607C9.14062 5.34726 9.85556 4.63232 10.7344 4.63232C11.6132 4.63232 12.3281 5.34726 12.3281 6.22607C12.3281 7.10488 11.6132 7.81982 10.7344 7.81982C9.85556 7.81982 9.14062 7.10488 9.14062 6.22607Z" fill="white"/>
<path d="M6.64372 12.2868C7.24602 11.9799 7.69273 11.4568 7.90166 10.814C8.11053 10.1711 8.05658 9.48533 7.74969 8.88308C7.4428 8.28078 6.91972 7.83407 6.27688 7.62515C5.63394 7.41622 4.9482 7.47022 4.34595 7.77711C3.74366 8.084 3.29694 8.60708 3.08802 9.24992C2.87914 9.89281 2.93309 10.5786 3.23999 11.1808C3.54688 11.7831 4.06995 12.2299 4.7128 12.4388C4.97023 12.5224 5.23447 12.5639 5.49748 12.5639C5.89138 12.5639 6.28255 12.4708 6.64372 12.2868V12.2868ZM5.00248 11.5472C4.59777 11.4157 4.26847 11.1344 4.07525 10.7553C3.88203 10.3761 3.84805 9.94438 3.97958 9.53966C4.11106 9.13494 4.39231 8.80564 4.77148 8.61242C4.99888 8.49655 5.24511 8.43796 5.49313 8.43796C5.65869 8.43796 5.82509 8.46411 5.98714 8.51675C6.39186 8.64824 6.72116 8.92949 6.91438 9.30866C7.10759 9.68783 7.14158 10.1195 7.01005 10.5243C6.87856 10.929 6.59731 11.2583 6.21814 11.4515C5.83892 11.6447 5.4072 11.6787 5.00248 11.5472Z" fill="white"/>
<path d="M6.00924 18.2386C6.45756 18.5643 6.97787 18.7211 7.49363 18.7211C8.27701 18.7211 9.05007 18.3594 9.5447 17.6786C9.9421 17.1316 10.1027 16.4627 9.9969 15.7949C9.8911 15.1271 9.53166 14.5405 8.98468 14.1431C8.4377 13.7458 7.76884 13.5851 7.10096 13.6909C6.43318 13.7967 5.84659 14.1562 5.44923 14.7031C4.62896 15.8322 4.88016 17.4182 6.00924 18.2386V18.2386ZM6.20776 15.2542C6.45793 14.9098 6.82726 14.6835 7.24768 14.6169C7.3321 14.6035 7.41652 14.5969 7.50038 14.5969C7.83413 14.5969 8.15851 14.7017 8.43371 14.9016C9.14462 15.4181 9.30277 16.4167 8.78626 17.1276C8.26974 17.8384 7.27121 17.9966 6.56031 17.4801C5.8494 16.9636 5.69124 15.965 6.20776 15.2542Z" fill="white"/>
<path d="M13.9764 18.721C14.4922 18.721 15.0126 18.5642 15.4609 18.2385C16.5899 17.4182 16.8411 15.8322 16.0208 14.7031C15.6234 14.1561 15.0368 13.7967 14.3691 13.6909C13.7013 13.5852 13.0324 13.7457 12.4854 14.1431C11.9384 14.5405 11.5789 15.1271 11.4732 15.7948C11.3674 16.4626 11.528 17.1316 11.9254 17.6786C12.4201 18.3595 13.1929 18.721 13.9764 18.721V18.721ZM13.0364 14.9016C13.3807 14.6514 13.8018 14.5502 14.2224 14.6168C14.6428 14.6834 15.0121 14.9097 15.2623 15.2541C15.7788 15.965 15.6207 16.9636 14.9097 17.4801C14.1988 17.9966 13.2003 17.8385 12.6838 17.1275C12.1673 16.4166 12.3255 15.4181 13.0364 14.9016V14.9016Z" fill="white"/>
<path d="M15.1913 7.62507C14.5484 7.83399 14.0253 8.28071 13.7185 8.88301C13.4116 9.4853 13.3577 10.171 13.5665 10.8139C13.7755 11.4568 14.2222 11.9799 14.8245 12.2867C15.1856 12.4708 15.5768 12.5639 15.9707 12.5639C16.2337 12.5639 16.4981 12.5223 16.7554 12.4388C17.3983 12.2298 17.9214 11.7831 18.2282 11.1808C18.5351 10.5785 18.5891 9.89279 18.3802 9.2499C18.1713 8.60701 17.7245 8.08393 17.1222 7.77708C16.52 7.47019 15.8342 7.41629 15.1913 7.62507V7.62507ZM16.6967 8.6124C17.0758 8.80562 17.3571 9.13487 17.4886 9.53963C17.6201 9.94435 17.5861 10.3761 17.3929 10.7552C17.1997 11.1344 16.8704 11.4157 16.4657 11.5472C16.0609 11.6786 15.6292 11.6447 15.2501 11.4515C14.8709 11.2583 14.5896 10.929 14.4581 10.5242C14.3266 10.1195 14.3606 9.68781 14.5538 9.30863C14.747 8.92946 15.0763 8.64821 15.4811 8.51673C15.6431 8.46404 15.8095 8.43793 15.9751 8.43793C16.223 8.43793 16.4693 8.49652 16.6967 8.6124Z" fill="white"/>
<path d="M12.3418 11.7344C12.3418 10.848 11.6208 10.127 10.7344 10.127C9.84803 10.127 9.12695 10.848 9.12695 11.7344C9.12695 12.6208 9.84803 13.3418 10.7344 13.3418C11.6208 13.3418 12.3418 12.6208 12.3418 11.7344ZM10.0645 11.7344C10.0645 11.365 10.365 11.0645 10.7344 11.0645C11.1038 11.0645 11.4043 11.365 11.4043 11.7344C11.4043 12.1038 11.1038 12.4043 10.7344 12.4043C10.365 12.4043 10.0645 12.1038 10.0645 11.7344V11.7344Z" fill="white"/>
<path d="M23.8627 20.4416C23.3326 19.9116 22.6279 19.6197 21.8783 19.6197C21.1287 19.6197 20.424 19.9116 19.8939 20.4416C19.1913 21.1443 18.2571 21.5312 17.2634 21.5312H15.1344C16.3078 21.0037 17.3877 20.2617 18.3247 19.3247C20.3522 17.2973 21.4688 14.6016 21.4688 11.7344C21.4688 9.63719 20.8638 7.60539 19.7192 5.85864C19.5774 5.64208 19.2868 5.58156 19.0703 5.72345C18.8537 5.86534 18.7932 6.15592 18.9351 6.37244C19.9793 7.96609 20.5312 9.82023 20.5312 11.7344C20.5312 17.1364 16.1364 21.5312 10.7344 21.5312C5.33236 21.5312 0.9375 17.1364 0.9375 11.7344C0.9375 6.33236 5.33236 1.9375 10.7344 1.9375C12.6517 1.9375 14.5086 2.49119 16.104 3.53875C16.3204 3.68088 16.611 3.62064 16.7531 3.40417C16.8952 3.18775 16.835 2.89717 16.6185 2.75505C14.8698 1.60689 12.8351 1 10.7344 1C7.86713 1 5.17148 2.11656 3.14405 4.14405C1.11661 6.17153 0 8.86713 0 11.7344C0 14.6016 1.11656 17.2973 3.14405 19.3248C5.17148 21.3522 7.86713 22.4688 10.7344 22.4688H17.2634C18.5075 22.4688 19.6771 21.9843 20.5568 21.1045C20.9098 20.7516 21.3791 20.5571 21.8783 20.5571C22.3775 20.5571 22.8468 20.7515 23.1998 21.1045C23.3828 21.2876 23.6796 21.2876 23.8627 21.1045C24.0458 20.9215 24.0458 20.6247 23.8627 20.4416Z" fill="white"/>
<path d="M17.9961 4.94729C18.1194 4.94729 18.2403 4.8976 18.3275 4.81041C18.4147 4.72275 18.4648 4.60229 18.4648 4.479C18.4648 4.35525 18.4147 4.23479 18.3275 4.14713C18.2403 4.05994 18.1194 4.01025 17.9961 4.01025C17.8728 4.01025 17.7519 4.05994 17.6647 4.14713C17.5775 4.23479 17.5273 4.35525 17.5273 4.479C17.5273 4.60229 17.5775 4.72322 17.6647 4.81041C17.7519 4.8976 17.8728 4.94729 17.9961 4.94729Z" fill="white"/>
<path d="M28.84 19H28.6L34.58 5L34.8 4.9L39.84 19H38.14L36.58 14.6H30.74L28.84 19ZM33.96 7.16L30.82 14.4H36.52L33.96 7.16ZM43.5861 19C42.4128 19 41.6728 18.6933 41.3661 18.08C41.2994 17.9467 41.2661 17.8267 41.2661 17.72V4.02H42.6661V17.58C42.6661 17.9667 42.7394 18.2667 42.8861 18.48C43.0461 18.68 43.2061 18.7867 43.3661 18.8L43.5861 18.84H44.2061V19H43.5861ZM48.2541 19C47.0807 19 46.3407 18.6933 46.0341 18.08C45.9674 17.9467 45.9341 17.8267 45.9341 17.72V4.02H47.3341V17.58C47.3341 17.9667 47.4074 18.2667 47.5541 18.48C47.7141 18.68 47.8741 18.7867 48.0341 18.8L48.2541 18.84H48.8741V19H48.2541Z" fill="#3657CB"/>
<path d="M57.1186 19H56.8586L58.5986 5H59.2586L63.4586 17.94L67.6386 5H68.2986L70.0386 19H68.3786L66.9986 7.8L63.3786 19H62.1186L58.4586 7.94L57.1186 19ZM76.5869 19.08C75.1869 19.08 74.0469 18.68 73.1669 17.88C72.2869 17.08 71.8469 15.8467 71.8469 14.18C71.8469 12.5133 72.3002 11.22 73.2069 10.3C74.1269 9.38 75.2869 8.92 76.6869 8.92C78.1002 8.92 79.2469 9.32 80.1269 10.12C81.0069 10.92 81.4469 12.1533 81.4469 13.82C81.4469 15.4867 80.9869 16.78 80.0669 17.7C79.1602 18.62 78.0002 19.08 76.5869 19.08ZM76.7269 9.08C75.7135 9.08 74.8735 9.53333 74.2069 10.44C73.5402 11.3333 73.2069 12.5867 73.2069 14.2C73.2069 15.8 73.5135 16.9867 74.1269 17.76C74.7402 18.5333 75.5535 18.92 76.5669 18.92C77.5802 18.92 78.4202 18.4733 79.0869 17.58C79.7535 16.6733 80.0869 15.42 80.0869 13.82C80.0869 12.2067 79.7802 11.0133 79.1669 10.24C78.5535 9.46667 77.7402 9.08 76.7269 9.08ZM89.8128 9.12L89.9328 9C89.9861 9.02667 90.0528 9.10667 90.1328 9.24C90.2261 9.37333 90.2795 9.49333 90.2928 9.6C90.3195 9.70667 90.3328 9.80667 90.3328 9.9C90.3328 10.26 90.2528 10.6267 90.0928 11L86.2528 19H86.0528L82.3328 9H83.7328L86.7928 17.28L89.8928 11C90.0528 10.72 90.1328 10.3867 90.1328 10C90.1328 9.61333 90.0261 9.32 89.8128 9.12ZM93.4767 19C92.9301 19 92.5101 18.88 92.2167 18.64C91.9367 18.4 91.7901 18.16 91.7767 17.92L91.7567 17.58V9H93.1567V17.58C93.1567 17.9667 93.2301 18.2667 93.3767 18.48C93.5367 18.68 93.6901 18.7867 93.8367 18.8L94.0767 18.84H94.6967V19H93.4767ZM91.8767 6.76C91.7167 6.6 91.6367 6.4 91.6367 6.16C91.6367 5.92 91.7167 5.72 91.8767 5.56C92.0367 5.38667 92.2367 5.3 92.4767 5.3C92.7167 5.3 92.9167 5.38667 93.0767 5.56C93.2501 5.72 93.3367 5.92 93.3367 6.16C93.3367 6.4 93.2501 6.6 93.0767 6.76C92.9167 6.92 92.7167 7 92.4767 7C92.2367 7 92.0367 6.92 91.8767 6.76ZM96.6639 14.12C96.6639 15.7733 96.9506 16.9867 97.5239 17.76C98.1106 18.5333 98.8772 18.92 99.8239 18.92C101.157 18.92 102.344 18.72 103.384 18.32L103.444 18.46C102.377 18.8733 101.171 19.08 99.8239 19.08C98.4906 19.08 97.4039 18.68 96.5639 17.88C95.7239 17.08 95.3039 15.8467 95.3039 14.18C95.3039 12.5133 95.7439 11.22 96.6239 10.3C97.5039 9.38 98.6239 8.92 99.9839 8.92C101.077 8.92 101.997 9.24667 102.744 9.9C103.491 10.5533 103.864 11.52 103.864 12.8C103.864 12.8667 103.864 12.9333 103.864 13H96.7239C96.6839 13.36 96.6639 13.7333 96.6639 14.12ZM102.504 12.84C102.491 11.56 102.244 10.6133 101.764 10C101.284 9.38667 100.664 9.08 99.9039 9.08C99.1439 9.08 98.4639 9.41333 97.8639 10.08C97.2772 10.7467 96.9039 11.6667 96.7439 12.84H102.504ZM111.124 9.7C110.911 9.52667 110.564 9.38 110.084 9.26C109.618 9.14 109.264 9.08 109.024 9.08C108.784 9.08 108.644 9.08 108.604 9.08C107.884 9.09333 107.364 9.28 107.044 9.64C106.724 9.98667 106.564 10.38 106.564 10.82C106.564 11.26 106.704 11.6333 106.984 11.94C107.264 12.2333 107.611 12.4667 108.024 12.64C108.451 12.8 108.904 12.9867 109.384 13.2C109.878 13.4133 110.331 13.6333 110.744 13.86C111.171 14.0733 111.524 14.3933 111.804 14.82C112.084 15.2333 112.224 15.7533 112.224 16.38C112.224 17.0067 112.004 17.54 111.564 17.98C111.124 18.42 110.631 18.7133 110.084 18.86C109.551 19.0067 108.971 19.08 108.344 19.08C106.984 19.08 105.964 18.78 105.284 18.18L105.404 18.06C105.671 18.3133 106.064 18.52 106.584 18.68C107.118 18.84 107.631 18.92 108.124 18.92C108.911 18.92 109.558 18.7067 110.064 18.28C110.584 17.84 110.844 17.3 110.844 16.66C110.844 16.0067 110.651 15.4867 110.264 15.1C109.878 14.7 109.404 14.3933 108.844 14.18C108.298 13.9533 107.744 13.7333 107.184 13.52C106.624 13.2933 106.151 12.9867 105.764 12.6C105.378 12.2 105.184 11.74 105.184 11.22C105.184 10.7 105.304 10.28 105.544 9.96C105.784 9.62667 106.104 9.39333 106.504 9.26C107.184 9.03333 107.864 8.92 108.544 8.92C109.691 8.92 110.584 9.13333 111.224 9.56L111.124 9.7Z" fill="white"/>
</svg>
