<svg width="113" height="24" viewBox="0 0 113 24" fill="none" xmlns="http://www.w3.org/2000/svg">
<path d="M13.2656 5.22607C13.2656 3.83032 12.1301 2.69482 10.7344 2.69482C9.33863 2.69482 8.20312 3.83032 8.20312 5.22607C8.20312 6.62182 9.33863 7.75732 10.7344 7.75732C12.1301 7.75732 13.2656 6.62182 13.2656 5.22607ZM9.14062 5.22607C9.14062 4.34726 9.85556 3.63232 10.7344 3.63232C11.6132 3.63232 12.3281 4.34726 12.3281 5.22607C12.3281 6.10488 11.6132 6.81982 10.7344 6.81982C9.85556 6.81982 9.14062 6.10488 9.14062 5.22607Z" fill="white"/>
<path d="M6.64372 11.2868C7.24602 10.9799 7.69273 10.4568 7.90166 9.814C8.11053 9.17111 8.05658 8.48533 7.74969 7.88308C7.4428 7.28078 6.91972 6.83407 6.27688 6.62515C5.63394 6.41622 4.9482 6.47022 4.34595 6.77711C3.74366 7.084 3.29694 7.60708 3.08802 8.24992C2.87914 8.89281 2.93309 9.57859 3.23999 10.1808C3.54688 10.7831 4.06995 11.2299 4.7128 11.4388C4.97023 11.5224 5.23447 11.5639 5.49748 11.5639C5.89138 11.5639 6.28255 11.4708 6.64372 11.2868V11.2868ZM5.00248 10.5472C4.59777 10.4157 4.26847 10.1344 4.07525 9.75526C3.88203 9.37609 3.84805 8.94438 3.97958 8.53966C4.11106 8.13494 4.39231 7.80564 4.77148 7.61242C4.99888 7.49655 5.24511 7.43796 5.49313 7.43796C5.65869 7.43796 5.82509 7.46411 5.98714 7.51675C6.39186 7.64824 6.72116 7.92949 6.91438 8.30866C7.10759 8.68783 7.14158 9.11955 7.01005 9.52426C6.87856 9.92898 6.59731 10.2583 6.21814 10.4515C5.83892 10.6447 5.4072 10.6787 5.00248 10.5472Z" fill="white"/>
<path d="M6.00924 17.2386C6.45756 17.5643 6.97787 17.7211 7.49363 17.7211C8.27701 17.7211 9.05007 17.3594 9.5447 16.6786C9.9421 16.1316 10.1027 15.4627 9.9969 14.7949C9.8911 14.1271 9.53166 13.5405 8.98468 13.1431C8.4377 12.7458 7.76884 12.5851 7.10096 12.6909C6.43318 12.7967 5.84659 13.1562 5.44923 13.7031C4.62896 14.8322 4.88016 16.4182 6.00924 17.2386V17.2386ZM6.20776 14.2542C6.45793 13.9098 6.82726 13.6835 7.24768 13.6169C7.3321 13.6035 7.41652 13.5969 7.50038 13.5969C7.83413 13.5969 8.15851 13.7017 8.43371 13.9016C9.14462 14.4181 9.30277 15.4167 8.78626 16.1276C8.26974 16.8384 7.27121 16.9966 6.56031 16.4801C5.8494 15.9636 5.69124 14.965 6.20776 14.2542Z" fill="white"/>
<path d="M13.9764 17.721C14.4922 17.721 15.0126 17.5642 15.4609 17.2385C16.5899 16.4182 16.8411 14.8322 16.0208 13.7031C15.6234 13.1561 15.0368 12.7967 14.3691 12.6909C13.7013 12.5852 13.0324 12.7457 12.4854 13.1431C11.9384 13.5405 11.5789 14.1271 11.4732 14.7948C11.3674 15.4626 11.528 16.1316 11.9254 16.6786C12.4201 17.3595 13.1929 17.721 13.9764 17.721V17.721ZM13.0364 13.9016C13.3807 13.6514 13.8018 13.5502 14.2224 13.6168C14.6428 13.6834 15.0121 13.9097 15.2623 14.2541C15.7788 14.965 15.6207 15.9636 14.9097 16.4801C14.1988 16.9966 13.2003 16.8385 12.6838 16.1275C12.1673 15.4166 12.3255 14.4181 13.0364 13.9016V13.9016Z" fill="white"/>
<path d="M15.1913 6.62507C14.5484 6.83399 14.0253 7.28071 13.7185 7.88301C13.4116 8.4853 13.3577 9.17104 13.5665 9.81393C13.7755 10.4568 14.2222 10.9799 14.8245 11.2867C15.1856 11.4708 15.5768 11.5639 15.9707 11.5639C16.2337 11.5639 16.4981 11.5223 16.7554 11.4388C17.3983 11.2298 17.9214 10.7831 18.2282 10.1808C18.5351 9.57852 18.5891 8.89279 18.3802 8.2499C18.1713 7.60701 17.7245 7.08393 17.1222 6.77708C16.52 6.47019 15.8342 6.41629 15.1913 6.62507V6.62507ZM16.6967 7.6124C17.0758 7.80562 17.3571 8.13487 17.4886 8.53963C17.6201 8.94435 17.5861 9.37607 17.3929 9.75524C17.1997 10.1344 16.8704 10.4157 16.4657 10.5472C16.0609 10.6786 15.6292 10.6447 15.2501 10.4515C14.8709 10.2583 14.5896 9.92901 14.4581 9.52424C14.3266 9.11952 14.3606 8.68781 14.5538 8.30863C14.747 7.92946 15.0763 7.64821 15.4811 7.51673C15.6431 7.46404 15.8095 7.43793 15.9751 7.43793C16.223 7.43793 16.4693 7.49652 16.6967 7.6124Z" fill="white"/>
<path d="M12.3418 10.7344C12.3418 9.84803 11.6208 9.12695 10.7344 9.12695C9.84803 9.12695 9.12695 9.84803 9.12695 10.7344C9.12695 11.6208 9.84803 12.3418 10.7344 12.3418C11.6208 12.3418 12.3418 11.6208 12.3418 10.7344ZM10.0645 10.7344C10.0645 10.365 10.365 10.0645 10.7344 10.0645C11.1038 10.0645 11.4043 10.365 11.4043 10.7344C11.4043 11.1038 11.1038 11.4043 10.7344 11.4043C10.365 11.4043 10.0645 11.1038 10.0645 10.7344V10.7344Z" fill="white"/>
<path d="M23.8627 19.4416C23.3326 18.9116 22.6279 18.6197 21.8783 18.6197C21.1287 18.6197 20.424 18.9116 19.8939 19.4416C19.1913 20.1443 18.2571 20.5312 17.2634 20.5312H15.1344C16.3078 20.0037 17.3877 19.2617 18.3247 18.3247C20.3522 16.2973 21.4688 13.6016 21.4688 10.7344C21.4688 8.63719 20.8638 6.60539 19.7192 4.85864C19.5774 4.64208 19.2868 4.58156 19.0703 4.72345C18.8537 4.86534 18.7932 5.15592 18.9351 5.37244C19.9793 6.96609 20.5312 8.82023 20.5312 10.7344C20.5312 16.1364 16.1364 20.5312 10.7344 20.5312C5.33236 20.5312 0.9375 16.1364 0.9375 10.7344C0.9375 5.33236 5.33236 0.9375 10.7344 0.9375C12.6517 0.9375 14.5086 1.49119 16.104 2.53875C16.3204 2.68088 16.611 2.62064 16.7531 2.40417C16.8952 2.18775 16.835 1.89717 16.6185 1.75505C14.8698 0.606891 12.8351 0 10.7344 0C7.86713 0 5.17148 1.11656 3.14405 3.14405C1.11661 5.17153 0 7.86713 0 10.7344C0 13.6016 1.11656 16.2973 3.14405 18.3248C5.17148 20.3522 7.86713 21.4688 10.7344 21.4688H17.2634C18.5075 21.4688 19.6771 20.9843 20.5568 20.1045C20.9098 19.7516 21.3791 19.5571 21.8783 19.5571C22.3775 19.5571 22.8468 19.7515 23.1998 20.1045C23.3828 20.2876 23.6796 20.2876 23.8627 20.1045C24.0458 19.9215 24.0458 19.6247 23.8627 19.4416Z" fill="white"/>
<path d="M17.9961 3.94729C18.1194 3.94729 18.2403 3.8976 18.3275 3.81041C18.4147 3.72275 18.4648 3.60229 18.4648 3.479C18.4648 3.35525 18.4147 3.23479 18.3275 3.14713C18.2403 3.05994 18.1194 3.01025 17.9961 3.01025C17.8728 3.01025 17.7519 3.05994 17.6647 3.14713C17.5775 3.23479 17.5273 3.35525 17.5273 3.479C17.5273 3.60229 17.5775 3.72322 17.6647 3.81041C17.7519 3.8976 17.8728 3.94729 17.9961 3.94729Z" fill="white"/>
<path d="M37 17L37.096 14.488H34.424L33.64 17H30.584L34.696 5.48H39.976L40.04 17H37ZM36.344 8.28L35.08 12.344H37.176L37.352 8.28H36.344ZM44.578 14.536C44.578 14.8133 44.7167 14.952 44.994 14.952C45.282 14.952 45.522 14.8987 45.714 14.792L45.634 16.6C45.122 17.016 44.546 17.224 43.906 17.224C42.9353 17.224 42.306 17 42.018 16.552C41.8367 16.264 41.746 15.9493 41.746 15.608C41.746 15.2667 41.7673 14.968 41.81 14.712L43.554 4.856H46.274L44.594 14.344C44.5833 14.408 44.578 14.472 44.578 14.536ZM49.6874 14.536C49.6874 14.8133 49.826 14.952 50.1034 14.952C50.3914 14.952 50.6314 14.8987 50.8234 14.792L50.7434 16.6C50.2314 17.016 49.6554 17.224 49.0154 17.224C48.0447 17.224 47.4154 17 47.1274 16.552C46.946 16.264 46.8554 15.9493 46.8554 15.608C46.8554 15.2667 46.8767 14.968 46.9194 14.712L48.6634 4.856H51.3834L49.7034 14.344C49.6927 14.408 49.6874 14.472 49.6874 14.536Z" fill="#375EE8"/>
<path d="M60.6565 5.48L62.3685 11L66.0485 5.48H69.0725L67.0405 17H64.1445L65.2965 10.504L62.8325 14.376H60.7365L59.6485 10.504L58.4965 17H55.6165L57.6485 5.48H60.6565ZM74.1516 9.08C75.3036 9.08 76.173 9.33067 76.7596 9.832C77.2183 10.2267 77.4476 10.776 77.4476 11.48C77.4476 11.7147 77.421 11.9707 77.3676 12.248L77.0316 14.12C76.829 15.2507 76.3543 16.0507 75.6076 16.52C74.8716 16.9893 73.885 17.224 72.6476 17.224C71.4103 17.224 70.5036 16.9893 69.9276 16.52C69.501 16.168 69.2876 15.64 69.2876 14.936C69.2876 14.6907 69.3143 14.4187 69.3676 14.12L69.7036 12.248C70.077 10.136 71.5596 9.08 74.1516 9.08ZM74.5836 12.568C74.605 12.4613 74.6156 12.328 74.6156 12.168C74.6156 11.9973 74.5463 11.8107 74.4076 11.608C74.269 11.4053 74.0236 11.304 73.6716 11.304C73.3303 11.304 73.0423 11.4213 72.8076 11.656C72.573 11.88 72.4236 12.184 72.3596 12.568L72.1516 13.768C72.1303 13.8747 72.1196 14.0133 72.1196 14.184C72.1196 14.344 72.189 14.52 72.3276 14.712C72.4663 14.904 72.7063 15 73.0476 15C73.3996 15 73.693 14.8827 73.9276 14.648C74.1623 14.4027 74.3116 14.1093 74.3756 13.768L74.5836 12.568ZM86.5109 9.304C86.6602 9.752 86.7349 10.3493 86.7349 11.096C86.7349 11.832 86.6442 12.5413 86.4629 13.224C86.2815 13.9067 86.0042 14.5573 85.6309 15.176C85.2682 15.784 84.7562 16.28 84.0949 16.664C83.4442 17.0373 82.6922 17.224 81.8389 17.224C80.5055 17.224 79.5829 16.952 79.0709 16.408C78.7295 16.0453 78.5589 15.4907 78.5589 14.744C78.5589 14.392 78.6015 13.992 78.6869 13.544L79.4389 9.304H82.1589L81.4069 13.56C81.3749 13.72 81.3589 13.864 81.3589 13.992C81.3589 14.6 81.6735 14.904 82.3029 14.904C83.4122 14.904 83.9669 13.7413 83.9669 11.416C83.9669 10.872 83.9242 10.2693 83.8389 9.608L83.7909 9.304H86.5109ZM91.0093 14.952C91.2546 14.952 91.4733 14.8987 91.6653 14.792L91.5853 16.6C91.0839 17.016 90.5133 17.224 89.8733 17.224C88.9026 17.224 88.2733 17 87.9853 16.552C87.7933 16.2533 87.6973 15.9387 87.6973 15.608C87.6973 15.2667 87.7186 14.968 87.7613 14.712L88.7213 9.304H91.4413L90.5453 14.344C90.5346 14.408 90.5293 14.4667 90.5293 14.52C90.5293 14.808 90.6893 14.952 91.0093 14.952ZM89.0413 6.696C89.0413 6.01333 89.1906 5.51733 89.4893 5.208C89.7986 4.888 90.2733 4.728 90.9133 4.728C91.8093 4.728 92.2573 5.12267 92.2573 5.912C92.2573 6.584 92.1026 7.07467 91.7933 7.384C91.4946 7.69333 91.0199 7.848 90.3693 7.848C89.4839 7.848 89.0413 7.464 89.0413 6.696ZM95.8809 17.224C93.6622 17.224 92.5529 16.456 92.5529 14.92C92.5529 14.7067 92.5742 14.4773 92.6169 14.232L92.9529 12.248C93.1342 11.224 93.6035 10.44 94.3609 9.896C95.1289 9.34133 96.1422 9.064 97.4009 9.064C99.5449 9.064 100.617 9.87467 100.617 11.496C100.617 11.7307 100.596 11.9867 100.553 12.264L100.361 13.4H95.4809L95.4169 13.768C95.3955 13.896 95.3849 14.0133 95.3849 14.12C95.3849 14.7067 95.7315 15 96.4249 15C96.6809 15 96.8995 14.92 97.0809 14.76C97.2622 14.6 97.3689 14.4133 97.4009 14.2L100.057 14.232C99.7049 16.2267 98.3129 17.224 95.8809 17.224ZM97.8009 12.424C97.8435 12.2427 97.8649 12.0773 97.8649 11.928C97.8649 11.768 97.7955 11.608 97.6569 11.448C97.5182 11.288 97.2942 11.208 96.9849 11.208C96.6862 11.208 96.4089 11.3093 96.1529 11.512C95.9075 11.7147 95.7369 12.0187 95.6409 12.424H97.8009ZM109.477 10.968C109.477 11.32 109.37 11.6453 109.157 11.944H106.533C106.618 11.88 106.661 11.7733 106.661 11.624C106.661 11.4747 106.576 11.3573 106.405 11.272C106.234 11.176 106.016 11.128 105.749 11.128C104.949 11.128 104.549 11.3733 104.549 11.864C104.549 12.056 104.698 12.1947 104.997 12.28C105.296 12.3653 105.658 12.4347 106.085 12.488C106.512 12.5413 106.938 12.6213 107.365 12.728C107.792 12.824 108.154 13.0213 108.453 13.32C108.752 13.6187 108.901 14.0187 108.901 14.52C108.901 15.4053 108.544 16.0773 107.829 16.536C107.125 16.9947 106.096 17.224 104.741 17.224C103.386 17.224 102.437 17.0053 101.893 16.568C101.466 16.2267 101.253 15.7573 101.253 15.16C101.253 14.9893 101.269 14.8133 101.301 14.632L103.973 14.6C103.952 14.7493 104.037 14.8827 104.229 15C104.432 15.1067 104.725 15.16 105.109 15.16C105.493 15.16 105.77 15.1227 105.941 15.048C106.112 14.9627 106.197 14.808 106.197 14.584C106.197 14.4347 106.048 14.3333 105.749 14.28C105.45 14.216 105.082 14.1627 104.645 14.12C104.218 14.0773 103.786 14.008 103.349 13.912C102.922 13.816 102.56 13.6133 102.261 13.304C101.962 12.9947 101.813 12.5893 101.813 12.088C101.813 11.1173 102.186 10.3707 102.933 9.848C103.69 9.32533 104.778 9.064 106.197 9.064C108.384 9.064 109.477 9.69867 109.477 10.968Z" fill="white"/>
</svg>
